<svg fill="currentColor" width="60px" height="60px" xmlns="http://www.w3.org/2000/svg" preserveAspectRatio="xMidYMid meet" version="1.0" transform="rotate(-90)">

 <g>
  <title>Layer 1</title>
  <g id="svg_1" fill="currentColor" transform="rotate(45 27.9985 30.0379) translate(0 50) scale(0.1 -0.1)">
   <path fill="currentColor" id="svg_2" d="m410,401c-14,-5 -41,-16 -60,-25c-44,-22 -280,-255 -280,-276c0,-20 91,-110 110,-110c23,0 255,239 279,287c12,24 24,63 28,88c6,45 5,45 -23,44c-16,0 -40,-4 -54,-8zm60,-24c0,-49 -79,-191 -80,-143c0,11 11,34 25,52c32,41 33,65 2,36c-31,-29 -44,-16 -15,15c29,31 5,30 -36,-2c-18,-14 -41,-25 -52,-25c-16,1 -14,5 11,25c51,42 145,69 145,42zm-92,-96c3,-8 -1,-12 -9,-9c-7,2 -15,10 -17,17c-3,8 1,12 9,9c7,-2 15,-10 17,-17zm-35,-19c15,-15 27,-37 27,-49c0,-22 -81,-103 -103,-103c-7,0 -28,15 -45,33c-38,39 -36,54 16,110c43,44 69,47 105,9zm-176,-122c-6,-8 -20,-25 -31,-37c-26,-31 -12,-42 17,-15c31,29 44,16 15,-15c-33,-35 -14,-39 27,-5c24,19 44,28 56,25c19,-5 18,-7 -8,-35c-51,-54 -60,-55 -109,-7c-24,24 -44,48 -44,53c0,6 17,27 37,48c32,33 38,36 44,21c4,-10 2,-25 -4,-33zm47,-31c-8,-13 -24,-1 -24,18c0,13 3,13 15,3c8,-7 12,-16 9,-21z"></path>
   <path fill="currentColor" id="svg_3" d="m260,260c0,-5 5,-10 10,-10c6,0 10,5 10,10c0,6 -4,10 -10,10c-5,0 -10,-4 -10,-10z"></path>
   <path fill="currentColor" id="svg_4" d="m225,229c-10,-15 3,-25 16,-12c7,7 7,13 1,17c-6,3 -14,1 -17,-5z"></path>
   <path fill="currentColor" id="svg_5" d="m250,216c-43,-47 3,-88 48,-43c25,26 25,27 7,47c-23,25 -27,25 -55,-4zm40,-15c0,-13 -26,-32 -33,-24c-8,7 11,33 24,33c5,0 9,-4 9,-9z"></path>
   <path fill="currentColor" id="svg_6" d="m330,190c0,-5 5,-10 10,-10c6,0 10,5 10,10c0,6 -4,10 -10,10c-5,0 -10,-4 -10,-10z"></path>
   <path fill="currentColor" id="svg_7" d="m295,159c-10,-15 3,-25 16,-12c7,7 7,13 1,17c-6,3 -14,1 -17,-5z"></path>
  </g>
 </g>
</svg>